Coordinates
version=1
nRows=22
nColumns=24
inDegrees=yes

Units are S.I. units (second, meters, Newtons, ...)
Angles are in degrees.

endheader
time	pelvis_tilt	pelvis_list	pelvis_rotation	pelvis_tx	pelvis_ty	pelvis_tz	hip_flexion_r	hip_adduction_r	hip_rotation_r	knee_angle_r	ankle_angle_r	subtalar_angle_r	mtp_angle_r	hip_flexion_l	hip_adduction_l	hip_rotation_l	knee_angle_l	ankle_angle_l	subtalar_angle_l	mtp_angle_l	lumbar_extension	lumbar_bending	lumbar_rotation
      0.92466667	     -2.67583081	     -0.45833037	     -2.42638646	     -0.07682191	      1.06537773	      0.31271345	     -9.34317703	      1.70750312	      1.21226735	    -10.72013181	     13.52481161	     -4.08424642	      2.67272274	     24.76382278	     -2.50793780	     -4.01119463	    -11.25540977	      6.87985789	      5.85894623	     11.49004414	    -11.75763628	      3.42598718	      4.00509492
      0.92883333	     -2.65376466	     -0.53663820	     -2.53878836	     -0.07104484	      1.06439036	      0.31239594	     -9.48370233	      1.71876267	      1.31465781	    -11.18320911	     13.60123686	     -4.04083391	      2.70264832	     24.74729686	     -2.54751317	     -3.89755796	    -11.36923511	      6.85232529	      5.84193202	     11.48073585	    -11.76168757	      3.49455857	      4.00863720
      0.93300000	     -2.58708615	     -0.58371325	     -2.64084330	     -0.06524375	      1.06349325	      0.31202409	     -9.62597880	      1.67714078	      1.23880701	    -11.74619864	     13.83475291	     -3.58821705	      2.88959587	     24.66871160	     -2.53814017	     -3.72457577	    -11.52924238	      6.76185156	      5.65547774	     11.42902351	    -11.79987583	      3.49559101	      4.04107004
      0.93716667	     -2.52362336	     -0.63610242	     -2.74336014	     -0.05942956	      1.06264332	      0.31167244	     -9.75816153	      1.64704232	      1.25094854	    -12.32195871	     13.95730011	     -3.31565595	      3.12539243	     24.59771143	     -2.53707633	     -3.56343855	    -11.76961687	      6.65568088	      5.50737038	     11.37559715	    -11.84639764	      3.50442684	      4.04323722
      0.94133333	     -2.48225944	     -0.69743752	     -2.84700762	     -0.05359582	      1.06179370	      0.31136313	     -9.86282992	      1.63822457	      1.36127216	    -12.90182098	     13.94777073	     -3.27591438	      3.16624714	     24.57035851	     -2.55652511	     -3.45757304	    -12.12304991	      6.54642844	      5.46105155	     11.36707997	    -11.87403147	      3.52077716	      4.03375238
      0.94550000	     -2.40542293	     -0.72920361	     -2.94315182	     -0.04773944	      1.06101819	      0.31096975	     -9.94273769	      1.57006550	      1.25046381	    -13.61708395	     14.11195498	     -2.78424652	      3.45406744	     24.48279772	     -2.52615412	     -3.27556648	    -12.48894306	      6.37925581	      5.24122852	     11.32425090	    -11.90843817	      3.50095020	      4.02962738
      0.94966667	     -2.34411127	     -0.78979590	     -3.03633874	     -0.04188954	      1.06027648	      0.31063723	    -10.02131758	      1.55759144	      1.34775488	    -14.29273809	     14.04550884	     -2.73182573	      3.51038022	     24.43927339	     -2.54003739	     -3.16459176	    -12.96781304	      6.22502488	      5.17275669	     11.31547322	    -11.95972233	      3.50838769	      4.01246448
      0.95383333	     -2.28038231	     -0.83355653	     -3.12348665	     -0.03602483	      1.05957922	      0.31021355	    -10.03667878	      1.49844273	      1.23113310	    -15.09371300	     14.02135422	     -2.32100668	      7.56170281	     24.36864415	     -2.51572872	     -2.94080888	    -13.44300338	      6.00672452	      4.88647122	     10.92009471	    -11.97748984	      3.49688048	      3.97038640
      0.95800000	     -2.21413429	     -0.87698189	     -3.19921416	     -0.03014199	      1.05891760	      0.30979634	    -10.04438963	      1.44930804	      1.18177504	    -15.92615911	     13.99333975	     -2.01709508	      7.62360119	     24.31609995	     -2.49888708	     -2.79568063	    -14.00198573	      5.82186874	      4.75264391	     10.91775161	    -12.00562753	      3.48745177	      3.93432323
      0.96216667	     -2.16645699	     -0.92014989	     -3.27309590	     -0.02425032	      1.05828059	      0.30937361	     -9.99844963	      1.39756613	      1.11107050	    -16.82147191	     13.91485721	     -1.70217963	      7.74304621	     24.28298994	     -2.48125189	     -2.63157597	    -14.59771913	      5.61308916	      4.56462501	     10.91255109	    -12.01076965	      3.47267344	      3.88387743
      0.96633333	     -2.09361645	     -0.96162471	     -3.33757662	     -0.01837492	      1.05774730	      0.30892702	     -9.94534831	      1.33954896	      1.01561048	    -17.77851511	     13.78991471	     -1.36790440	      7.92950198	     24.22124051	     -2.45704017	     -2.46351817	    -15.21725108	      5.40552110	      4.36736813	     10.90247001	    -12.05021723	      3.45119189	      3.82173142
      0.97050000	     -2.03624903	     -1.01926475	     -3.39897357	     -0.01251334	      1.05723468	      0.30847389	     -9.85002041	      1.30042623	      0.94399590	    -18.77746935	     13.59378376	     -1.04757264	      8.10556591	     24.18904030	     -2.45407234	     -2.30877272	    -15.88962291	      5.21259961	      4.18527623	     10.89084107	    -12.07962984	      3.45318644	      3.76467989
      0.97466667	     -1.99808742	     -1.04985528	     -3.44644045	     -0.00661359	      1.05676195	      0.30797995	     -9.69187406	      1.22520555	      0.79633103	    -19.84773177	     13.27237390	     -0.81499689	     11.68431195	     24.15733439	     -2.41165924	     -2.11050388	    -16.53813387	      4.99864313	      3.91173187	     10.66659229	    -12.05841503	      3.41614004	      3.67247502
      0.97883333	     -1.93180528	     -1.10373048	     -3.49088690	     -0.00076551	      1.05636739	      0.30747663	     -9.52796916	      1.17032440	      0.64838401	    -20.98659258	     12.97974676	     -0.44778948	     11.74337759	     24.11848473	     -2.40393446	     -1.98435322	    -17.25294519	      4.88460830	      3.79385300	     10.66009931	    -12.10260712	      3.40436831	      3.60485895
      0.98300000	     -1.90582553	     -1.13904718	     -3.53164244	      0.00511177	      1.05598016	      0.30695987	     -9.27871934	      1.09147302	      0.46898418	    -22.20119201	     12.63820666	     -0.09169512	     11.85787216	     24.10665011	     -2.37426836	     -1.83762602	    -17.94700737	      4.75705377	      3.60951726	     10.64531094	    -12.07893688	      3.37064031	      3.51495937
      0.98716667	     -1.85849999	     -1.17363134	     -3.56384042	      0.01095654	      1.05568615	      0.30641781	     -9.01498415	      1.00522088	      0.26571491	    -23.47331549	     12.23249021	      0.26466029	     12.02483625	     24.06480392	     -2.33926960	     -1.68430269	    -18.63404332	      4.66758012	      3.42829797	     10.62402356	    -12.08742319	      3.33469056	      3.41760409
      0.99133333	     -1.82746017	     -1.19888505	     -3.59018787	      0.01679260	      1.05542031	      0.30585759	     -8.69164278	      0.90253367	      0.03571788	    -24.80728256	     11.70909101	      0.51380016	     15.74968291	     24.02827539	     -2.29157659	     -1.52332113	    -19.30290851	      4.58811343	      3.19469807	     10.13374669	    -12.06995233	      3.30008451	      3.28765639
      0.99550000	     -1.78695853	     -1.23550012	     -3.61225832	      0.02260940	      1.05522940	      0.30530016	     -8.34663208	      0.80872224	     -0.19345665	    -26.19401834	     11.15941362	      0.84726127	     15.80118648	     23.97811877	     -2.26282331	     -1.40247439	    -19.97343774	      4.60575686	      3.09498207	     10.12778058	    -12.07775833	      3.25397155	      3.20767641
      0.99966667	     -1.77574721	     -1.25570620	     -3.63412474	      0.02841919	      1.05505355	      0.30473823	     -7.92395375	      0.69009500	     -0.44797695	    -27.65660604	     10.58215872	      1.17509773	     15.91059630	     23.94113211	     -2.21740920	     -1.28484811	    -20.61046046	      4.63298297	      2.95575024	     10.11187280	    -12.04130836	      3.20103794	      3.09960778
      1.00383333	     -1.75707417	     -1.26837266	     -3.64797145	      0.03420041	      1.05493944	      0.30415839	     -7.47009458	      0.55540303	     -0.72831175	    -29.17895374	      9.97961154	      1.46941427	     16.11183951	     23.88297803	     -2.16271140	     -1.18245958	    -21.22120712	      4.68072242	      2.81148448	     10.07973130	    -12.01498716	      3.15086630	      2.97444059
      1.00800000	     -1.74407186	     -1.28341125	     -3.66471872	      0.03995049	      1.05488578	      0.30360325	     -6.98063777	      0.42308993	     -0.98027915	    -30.72896898	      9.24186732	      1.72745561	     16.32092836	     23.80626880	     -2.11315290	     -1.07504902	    -21.78618838	      4.80939509	      2.71697620	     10.04683379	    -11.99376994	      3.07615655	      2.86553460
      1.01216667	     -1.70837629	     -1.28364995	     -3.66948489	      0.04565509	      1.05490736	      0.30302293	     -6.47865896	      0.26254487	     -1.27341796	    -32.32277161	      8.44545441	      1.86875679	     20.30298658	     23.69578414	     -2.04571358	     -0.99803060	    -22.33127223	      4.97169174	      2.61541941	      9.32824137	    -12.00292463	      2.99383838	      2.71034647
